<svg xmlns="http://www.w3.org/2000/svg" xmlns:xlink="http://www.w3.org/1999/xlink" viewBox="0 0 40 40"><path fill="#4788c7" d="M32 35h3c.55 0 1 .45 1 1l0 0c0 .55-.45 1-1 1h-3c-.55 0-1-.45-1-1l0 0C31 35.45 31.45 35 32 35zM5 35h3c.55 0 1 .45 1 1l0 0c0 .55-.45 1-1 1H5c-.55 0-1-.45-1-1l0 0C4 35.45 4.45 35 5 35z"/><path fill="#dff0fe" d="M3.5,35.5c-1.103,0-2-0.897-2-2v-27c0-1.103,0.897-2,2-2h33c1.103,0,2,0.897,2,2v27c0,1.103-0.897,2-2,2H3.5z"/><path fill="#4788c7" d="M36.5,5C37.327,5,38,5.673,38,6.5v27c0,0.827-0.673,1.5-1.5,1.5h-33C2.673,35,2,34.327,2,33.5v-27C2,5.673,2.673,5,3.5,5H36.5 M36.5,4h-33C2.119,4,1,5.119,1,6.5v27C1,34.881,2.119,36,3.5,36h33c1.381,0,2.5-1.119,2.5-2.5v-27C39,5.119,37.881,4,36.5,4L36.5,4z"/><path fill="#98ccfd" d="M5.5 8.5H25.5V31.5H5.5z"/><path fill="#4788c7" d="M25,9v22H6V9H25 M26,8H5v24h21V8L26,8z"/><path fill="#dff0fe" d="M22.5 37.5L22.5 2.5 25.861 2.5 35.5 8.283 35.5 31.717 25.861 37.5z"/><path fill="#4788c7" d="M25.723 3L35 8.566v22.868L25.723 37H23V3H25.723M26 2h-4v36h4l10-6V8L26 2 26 2zM36 11H39V15H36zM36 25H39V29H36z"/><path fill="#98ccfd" d="M30.5,29.5c-1.419,0-3-3.696-3-9s1.581-9,3-9c1.419,0,3,3.696,3,9S31.919,29.5,30.5,29.5z"/><path fill="#4788c7" d="M30.5,12c0.881,0,2.5,3.227,2.5,8.5S31.381,29,30.5,29S28,25.773,28,20.5S29.619,12,30.5,12 M30.5,11c-1.933,0-3.5,4.253-3.5,9.5s1.567,9.5,3.5,9.5s3.5-4.253,3.5-9.5S32.433,11,30.5,11L30.5,11z"/><path fill="#b6dcfe" d="M32.5,25.493c-0.361-0.202-1-2.03-1-4.993c0-3.022,0.665-4.863,1.021-5.003c0.314,0.14,0.979,1.981,0.979,5.003C33.5,23.463,32.861,25.291,32.5,25.493z"/><path fill="#4788c7" d="M32.5,16.541c0.249,0.752,0.5,2.104,0.5,3.959s-0.251,3.207-0.5,3.959C32.251,23.707,32,22.355,32,20.5S32.251,17.293,32.5,16.541 M32.5,15c-0.828,0-1.5,2.462-1.5,5.5s0.672,5.5,1.5,5.5s1.5-2.462,1.5-5.5S33.328,15,32.5,15L32.5,15z"/><path fill="none" stroke="#4788c7" stroke-linecap="round" d="M29.052 12.723l1.167 1.84M27.654 18.33l1.815.605M29.469 22.586l-1.782.978M30.271 26.494l-1.218 1.782"/><path fill="#fff" d="M15.5 21.5L8.5 21.5 8.5 18.5 15.5 18.5 15.5 15.207 20.293 20 15.5 24.793z"/><path fill="#fff" d="M16 16.414L19.586 20 16 23.586V22v-1h-1H9v-2h6 1v-1V16.414M15 14v4H8v4h7v4l6-6L15 14 15 14zM26 3.166L25.723 3 23 3 23 37 25.723 37 26 36.834z"/></svg>